<?xml version="1.0" encoding="utf-8"?>
<!-- Generator: Adobe Illustrator 15.0.0, SVG Export Plug-In . SVG Version: 6.00 Build 0)  -->
<!DOCTYPE svg PUBLIC "-//W3C//DTD SVG 1.1//EN" "http://www.w3.org/Graphics/SVG/1.1/DTD/svg11.dtd">
<svg version="1.1" xmlns="http://www.w3.org/2000/svg" xmlns:xlink="http://www.w3.org/1999/xlink" x="0px" y="0px"
	 width="87.413px" height="81.633px" viewBox="0 0 87.413 81.633" enable-background="new 0 0 87.413 81.633" xml:space="preserve">
<g id="图层_1" display="none">
	<rect x="0.118" display="inline" fill="none" width="87.295" height="81.52"/>
	<g display="inline">
		<path fill="#333333" d="M57.019,58.283v-6.657l-8.482-1.295c-0.502-1.874-1.288-3.638-2.331-5.254l4.944-6.583l-5.04-4.703
			l-6.954,4.672c-1.737-0.982-3.636-1.729-5.659-2.198l-1.479-7.884h-7.132l-1.37,7.859c-2.026,0.463-3.935,1.2-5.676,2.174
			l-6.935-4.623l-5.043,4.703l4.879,6.516c-1.053,1.632-1.855,3.411-2.364,5.315L0,51.626v6.657l8.367,1.384
			c0.505,1.901,1.309,3.684,2.367,5.318l-4.947,6.458l5.039,4.709l6.987-4.568c1.748,0.979,3.649,1.721,5.676,2.186l1.396,7.863
			h7.132l1.498-7.885c2.014-0.475,3.915-1.225,5.644-2.207l7.032,4.611l5.04-4.709l-5.02-6.51c1.039-1.62,1.829-3.384,2.324-5.264
			L57.019,58.283z M28.513,64.29c-5.492,0-9.941-4.154-9.941-9.283c0-5.126,4.449-9.28,9.941-9.28c5.488,0,9.938,4.154,9.938,9.28
			C38.45,60.136,34.001,64.29,28.513,64.29z"/>
	</g>
	<g display="inline">
		<path fill="#333333" d="M84.652,30.595l2.099-4.694l-5.574-3.255c0.242-1.464,0.242-2.921,0.02-4.354l5.567-3.273l-2.068-4.712
			l-6.384,1.384c-0.912-1.176-2.021-2.22-3.299-3.117l1.449-5.964l-5.03-1.966l-3.449,5.166c-1.577-0.233-3.154-0.239-4.695-0.031
			l-3.426-5.171l-5.046,1.923l1.384,5.946c-1.26,0.857-2.388,1.898-3.352,3.099l-6.321-1.396l-2.102,4.693l5.466,3.295
			c-0.246,1.473-0.243,2.948-0.014,4.4l-5.527,3.188l2.065,4.718l6.37-1.298c0.925,1.169,2.03,2.214,3.315,3.104l-1.495,5.934
			l5.026,1.96l3.551-5.147c1.567,0.221,3.147,0.215,4.679-0.006l3.505,5.196l5.04-1.936l-1.482-5.971
			c1.243-0.857,2.357-1.886,3.302-3.07L84.652,30.595z M62.639,26.972c-3.869-1.512-5.699-5.667-4.079-9.292
			c1.62-3.613,6.075-5.315,9.948-3.804c3.872,1.516,5.698,5.671,4.078,9.29C70.967,26.782,66.514,28.484,62.639,26.972z"/>
	</g>
</g>
<g id="图层_1_x5F_复制">
	<rect x="0.118" fill="none" width="87.295" height="81.52"/>
	<g>
		<path fill="#3FA9F5" d="M57.019,58.283v-6.657l-8.482-1.295c-0.502-1.874-1.288-3.638-2.331-5.254l4.944-6.583l-5.04-4.703
			l-6.954,4.672c-1.737-0.982-3.636-1.729-5.659-2.198l-1.479-7.884h-7.132l-1.37,7.859c-2.026,0.463-3.935,1.2-5.676,2.174
			l-6.935-4.623l-5.043,4.703l4.879,6.516c-1.053,1.632-1.855,3.411-2.364,5.315L0,51.626v6.657l8.367,1.384
			c0.505,1.901,1.309,3.684,2.367,5.318l-4.947,6.458l5.039,4.709l6.987-4.568c1.748,0.979,3.649,1.721,5.676,2.186l1.396,7.863
			h7.132l1.498-7.885c2.014-0.475,3.915-1.225,5.644-2.207l7.032,4.611l5.04-4.709l-5.02-6.51c1.039-1.62,1.829-3.384,2.324-5.264
			L57.019,58.283z M28.513,64.29c-5.492,0-9.941-4.154-9.941-9.283c0-5.126,4.449-9.28,9.941-9.28c5.488,0,9.938,4.154,9.938,9.28
			C38.45,60.136,34.001,64.29,28.513,64.29z"/>
	</g>
	<g>
		<path fill="#8CC63F" d="M84.652,30.595l2.099-4.694l-5.574-3.255c0.242-1.464,0.242-2.921,0.02-4.354l5.567-3.273l-2.068-4.712
			l-6.384,1.384c-0.912-1.176-2.021-2.22-3.299-3.117l1.449-5.964l-5.03-1.966l-3.449,5.166c-1.577-0.233-3.154-0.239-4.695-0.031
			l-3.426-5.171l-5.046,1.923l1.384,5.946c-1.26,0.857-2.388,1.898-3.352,3.099l-6.321-1.396l-2.102,4.693l5.466,3.295
			c-0.246,1.473-0.243,2.948-0.014,4.4l-5.527,3.188l2.065,4.718l6.37-1.298c0.925,1.169,2.03,2.214,3.315,3.104l-1.495,5.934
			l5.026,1.96l3.551-5.147c1.567,0.221,3.147,0.215,4.679-0.006l3.505,5.196l5.04-1.936l-1.482-5.971
			c1.243-0.857,2.357-1.886,3.302-3.07L84.652,30.595z M62.639,26.972c-3.869-1.512-5.699-5.667-4.079-9.292
			c1.62-3.613,6.075-5.315,9.948-3.804c3.872,1.516,5.698,5.671,4.078,9.29C70.967,26.782,66.514,28.484,62.639,26.972z"/>
	</g>
</g>
</svg>
